<svg width="1367.025" height="600" xmlns="http://www.w3.org/2000/svg" xmlns:xlink="http://www.w3.org/1999/xlink" data-name="Group 202">
 <defs>
  <linearGradient id="linear-gradient-2" x1="0.814" y1="0.106" x2="0.213" y2="0.854" gradientUnits="objectBoundingBox">
   <stop offset="0" stop-color="#fff" stop-opacity="0"/>
   <stop offset="1" stop-color="#fff" stop-opacity="0.2"/>
  </linearGradient>
  <linearGradient id="linear-gradient-3" x1="0.093" y1="0.119" x2="0.916" y2="0.851" xlink:href="#linear-gradient-2"/>
  <linearGradient id="svg_7" x1="1" y1="0.01" x2="0.01563" y2="0.99689" gradientUnits="objectBoundingBox">
   <stop stop-opacity="0.99609" offset="0" stop-color="#00ffff"/>
   <stop offset="1" stop-color="#0b0089" stop-opacity="0.99219"/>
  </linearGradient>
 </defs>
 <g>
  <title>Layer 1</title>
  <path stroke-opacity="0" stroke="#000000" id="Path_152" data-name="Path 152" d="m0,462s138.5,-112.93 310,-121.387s208.5,80.593 376,87.558s159.5,-115.417 308,-125.371s188.5,92.533 286,85.568s86.667,-43.705 86.667,-43.705l0,-344l-1366.667,-0.663l0,462z" fill="url(#svg_7)"/>
  <path id="Path_351" data-name="Path 351" d="m1273.334,188c-41.333,-68 -80,121.334 -138.667,125.333c-29.536,2.013 -33.726,-20.643 -42.515,-43.3c-8.667,-22.346 -21.808,-44.691 -68.152,-43.367c-93.333,2.667 -32,-141.333 69.334,-145.333c67.471,-2.664 70.511,-49.656 65.009,-80.768l208.324,0.1l0,344s6.592,22.366 -36.815,35.5c-8.183,-49.257 -26.858,-143.369 -56.518,-192.165z" fill="url(#linear-gradient-2)"/>
  <path id="Path_195" data-name="Path 195" d="m78.49902,319a23.348,23.348 0 0 1 -16.617,-6.883a23.345,23.345 0 0 1 -6.883,-16.617a23.347,23.347 0 0 1 6.883,-16.618a23.348,23.348 0 0 1 16.617,-6.882a23.348,23.348 0 0 1 16.617,6.883a23.347,23.347 0 0 1 6.883,16.617a23.345,23.345 0 0 1 -6.883,16.617a23.348,23.348 0 0 1 -16.617,6.883zm0,-40.286a16.805,16.805 0 0 0 -16.785,16.786a16.8,16.8 0 0 0 16.785,16.786a16.8,16.8 0 0 0 16.786,-16.786a16.805,16.805 0 0 0 -16.786,-16.786z" fill="#fff" stroke="rgba(0,0,0,0)" opacity="0.2"/>
  <path id="Path_355" data-name="Path 355" d="m0.00076,344.147l0,-344.147l5.658,0c77.6,51.747 88.6,159.233 184.341,104c52.73,-30.421 116.771,-72.154 176.222,-103.822l231.295,0.113c-36.131,23.25 -95.348,48.932 -85.517,103.709c14,78 60,182 -30,184c-38.392,0.853 -70.961,-20.493 -104.227,-41.84c-44.718,-28.695 -90.7,-57.391 -153.773,-32.16c-94.464,37.786 -183.03,130.145 -223.9,130.147l-0.099,0z" fill="url(#linear-gradient-3)"/>
  <path id="Path_342" data-name="Path 342" d="m971.62202,99a11.548,11.548 0 0 1 -8.219,-3.4a11.546,11.546 0 0 1 -3.4,-8.218a11.548,11.548 0 0 1 3.4,-8.219a11.548,11.548 0 0 1 8.219,-3.4a11.547,11.547 0 0 1 8.219,3.4a11.547,11.547 0 0 1 3.4,8.219a11.546,11.546 0 0 1 -3.4,8.218a11.548,11.548 0 0 1 -8.219,3.4zm0,-19.925a8.312,8.312 0 0 0 -8.3,8.3a8.311,8.311 0 0 0 8.3,8.3a8.311,8.311 0 0 0 8.3,-8.3a8.312,8.312 0 0 0 -8.3,-8.3z" fill="#fff" stroke="rgba(0,0,0,0)" opacity="0.2"/>
  <circle id="Ellipse_80" data-name="Ellipse 80" cx="425.5" cy="120.5" r="13.5" fill="#fff" opacity="0.2"/>
  <circle id="Ellipse_81" data-name="Ellipse 81" cx="1215.5" cy="303.5" r="18.5" fill="#fff" opacity="0.2"/>
  <circle id="Ellipse_68" data-name="Ellipse 68" cx="622.5" cy="375.5" r="8.5" fill="#fff" opacity="0.2"/>
  <g id="Path_343" data-name="Path 343" transform="matrix(0.259, 0.966, -0.966, 0.259, 710.181, 49.242)" fill="none" opacity="0.2">
   <path d="m18.565,10.207a8.165,8.165 0 0 1 14.178,0l13.147,23.007a8.165,8.165 0 0 1 -7.09,12.216l-26.293,0a8.165,8.165 0 0 1 -7.089,-12.216l13.147,-23.007z" id="svg_1"/>
   <path d="m25.65405,11.09338c-0.55225,0 -1.92549,0.15539 -2.74796,1.5947l-13.14681,23.00693c-0.81615,1.42826 -0.2645,2.68487 0.01056,3.15884c0.27505,0.47398 1.0924,1.57638 2.73739,1.57638l26.29364,0c1.64499,0 2.46233,-1.1024 2.73739,-1.57638c0.27505,-0.47397 0.8267,-1.73058 0.01055,-3.15884l-13.14681,-23.00693c-0.82246,-1.43931 -2.19571,-1.5947 -2.74795,-1.5947m-0.00001,-5c2.76096,0 5.52193,1.37134 7.08917,4.114l13.14682,23.00694c3.1104,5.44322 -0.81993,12.21591 -7.08916,12.21591l-26.29364,0c-6.26924,0 -10.19957,-6.77269 -7.08917,-12.21591l13.14682,-23.00694c1.56724,-2.74266 4.3282,-4.114 7.08916,-4.114z" fill="#fff" id="svg_2"/>
  </g>
  <g id="Path_344" data-name="Path 344" transform="matrix(-0.839, 0.545, -0.545, -0.839, 181.642, 48.728)" fill="none" opacity="0.2">
   <path d="m17.093,9.782a7.321,7.321 0 0 1 12.712,0l11.787,20.627a7.32,7.32 0 0 1 -6.356,10.952l-23.574,0a7.321,7.321 0 0 1 -6.356,-10.952l11.787,-20.627z" id="svg_3"/>
   <path d="m23.44866,10.09338c-0.57938,0 -2.02012,0.16302 -2.883,1.67307l-11.78714,20.62747c-0.85626,1.49846 -0.2775,2.81682 0.01107,3.3141c0.28858,0.49725 1.14609,1.65384 2.87194,1.65384l23.57426,0c1.72585,0 2.58336,-1.15659 2.87194,-1.65384c0.28857,-0.49728 0.86732,-1.81564 0.01106,-3.3141l-11.78712,-20.62747c-0.86288,-1.51004 -2.30363,-1.67307 -2.88301,-1.67307m0,-4c2.47541,0 4.95083,1.22951 6.35598,3.68851l11.78712,20.62748c2.78873,4.88027 -0.73512,10.95249 -6.35597,10.95249l-23.57426,0c-5.62085,0 -9.1447,-6.07222 -6.35598,-10.95249l11.78714,-20.62748c1.40515,-2.459 3.88056,-3.68851 6.35597,-3.68851z" fill="#fff" id="svg_4"/>
  </g>
  <path id="Path_349" data-name="Path 349" d="m766.666,357.334c49.333,-36 85.334,-4 98.667,-49.334c11.337,-38.546 88.224,-26 105.256,-2.529c-99.087,16.29 -120.5,88.257 -204.39,113.885c-15.591,-16.863 -28.035,-41.223 0.467,-62.022z" fill="#fff" opacity="0.16"/>
  <circle id="Ellipse_82" data-name="Ellipse 82" cx="295.5" cy="294.5" r="9.5" fill="#fff" opacity="0.2"/>
 </g>
</svg>